<?xml version="1.0" encoding="utf-8"?>
<!-- Generator: Adobe Illustrator 22.0.1, SVG Export Plug-In . SVG Version: 6.00 Build 0)  -->
<svg version="1.1" id="Layer_3" xmlns="http://www.w3.org/2000/svg" xmlns:xlink="http://www.w3.org/1999/xlink" x="0px" y="0px"
	 viewBox="0 0 135.4 25" style="enable-background:new 0 0 135.4 25;" xml:space="preserve">
<style type="text/css">
	.st0{fill:url(#SVGID_1_);}
	.st1{fill:#1B1D21;}
</style>
<linearGradient id="SVGID_1_" gradientUnits="userSpaceOnUse" x1="-9.094947e-13" y1="12.5" x2="40.4028" y2="12.5">
	<stop  offset="4.025560e-07" style="stop-color:#CAF7F1"/>
	<stop  offset="1" style="stop-color:#74C7BC"/>
</linearGradient>
<path class="st0" d="M40.4,20.3c0-0.6,0-1.1-0.1-1.6c-0.1-2-0.2-3.3-0.2-3.3V4.2c0-0.8-0.3-1.6-0.7-2.3c0,0,0,0.1,0,0.1
	s0-0.1-0.1-0.2c-0.1-0.1-0.2-0.3-0.3-0.5c-0.2-0.2-0.4-0.4-0.7-0.6c-0.3-0.2-0.6-0.4-1.1-0.5C36.9,0.1,36.4,0,35.9,0
	c-0.5,0-1.1,0.1-1.6,0.4c-0.3,0.1-0.5,0.3-0.7,0.4c-0.1,0.1-0.3,0.2-0.3,0.3l-0.2,0.1l-0.1,0.1c-0.4,0.4-0.8,0.8-1.2,1.2
	c-0.4,0.4-0.8,0.8-1.2,1.2c-0.4,0.4-0.8,0.8-1.1,1.2c-0.7,0.8-1.4,1.5-1.9,2.1C26.4,8.2,25.7,9,25.7,9l0,0l-2,2V7.7V4.4
	c0-0.6-0.1-1.2-0.4-1.7c0,0,0,0,0,0s0-0.1-0.1-0.2c-0.1-0.1-0.2-0.3-0.3-0.6C22.6,1.4,22,0.7,21,0.4c-0.5-0.2-1-0.3-1.6-0.2
	c-0.6,0-1.2,0.2-1.8,0.5c-0.1,0.1-0.3,0.2-0.4,0.3C17,1,16.9,1.1,16.7,1.2c-0.3,0.2-0.5,0.4-0.7,0.7c-0.5,0.5-0.9,0.9-1.4,1.4
	c-0.5,0.5-0.9,0.9-1.4,1.4C12.8,5.1,12.4,5.6,12,6c-0.8,0.9-1.6,1.7-2.3,2.4c-1.3,1.4-2.2,2.4-2.2,2.5l-6.4,6.4
	c-1.4,1.4-1.5,3.5-0.5,5c0.2,0.4,0.5,0.7,0.8,1c0.3,0.3,0.7,0.5,1.1,0.7c0.4,0.2,0.8,0.3,1.2,0.3c0.4,0,0.9,0,1.3-0.1
	c0.4-0.1,0.8-0.2,1.2-0.5c0.4-0.2,0.7-0.5,1-0.8c0.6-0.6,1.2-1.1,1.8-1.7c0.6-0.6,1.2-1.2,1.7-1.7l1.7-1.8c1-1.1,2-2.1,3.1-3.2
	c0,0.5,0,1,0.1,1.5c0,0.7,0.1,1.3,0.1,2V19c-0.1,0.3-0.3,0.7-0.3,1c-0.1,0.8,0,1.6,0.3,2.4c0.2,0.4,0.4,0.7,0.7,1l0.2,0.2
	c0.1,0.1,0.2,0.1,0.2,0.2c0.2,0.1,0.3,0.3,0.5,0.4c0.7,0.4,1.5,0.7,2.2,0.7c0.8,0,1.5-0.2,2.1-0.5c0.3-0.2,0.6-0.4,0.8-0.6
	c0.2-0.2,0.4-0.4,0.6-0.6c0.8-0.8,1.4-1.5,1.8-2c0.4-0.5,0.7-0.8,0.7-0.8l6.6-6.6v3.4c0,0-0.1,1.3-0.2,3.3c0,0.5,0,1.1,0.2,1.7
	c0.2,0.6,0.6,1.1,1,1.6c0.5,0.5,1.1,0.8,1.8,1c0.2,0.1,0.3,0.1,0.5,0.1c0.2,0,0.3,0,0.5,0c0.2,0,0.4,0,0.5,0c0.2,0,0.4,0,0.5-0.1
	c0.7-0.2,1.4-0.5,1.9-1c0.5-0.5,0.9-1.1,1.1-1.7c0.1-0.2,0.1-0.3,0.1-0.5c0-0.2,0.1-0.3,0.1-0.5c0-0.2,0-0.3,0-0.5
	C40.4,20.6,40.4,20.5,40.4,20.3z"/>
<g>
	<path class="st1" d="M52,5.5c0.2,0,0.4,0,0.6,0.1C52.8,5.7,52.9,5.9,53,6l4.9,7.5l-1,0l5-7.4c0.3-0.4,0.6-0.5,1-0.5
		c0.3,0,0.6,0.1,0.9,0.3C64,6,64.1,6.3,64.1,6.7v11.6c0,0.3-0.1,0.6-0.3,0.9s-0.5,0.3-0.9,0.3s-0.7-0.1-0.9-0.3
		c-0.2-0.2-0.4-0.5-0.4-0.9V8.9L62.4,9l-4.1,6.2c-0.1,0.1-0.3,0.3-0.5,0.4c-0.2,0.1-0.4,0.2-0.5,0.1c-0.2,0-0.3,0-0.5-0.1
		c-0.2-0.1-0.3-0.2-0.5-0.4l-3.8-6L53,8.2v10.1c0,0.3-0.1,0.6-0.3,0.9c-0.2,0.2-0.5,0.3-0.8,0.3c-0.3,0-0.6-0.1-0.8-0.3
		c-0.2-0.2-0.3-0.5-0.3-0.9V6.7c0-0.3,0.1-0.6,0.4-0.9C51.3,5.6,51.6,5.5,52,5.5z"/>
	<path class="st1" d="M72.2,8.6l-4.3,10.2c-0.1,0.3-0.2,0.5-0.4,0.6c-0.2,0.1-0.4,0.2-0.6,0.2c-0.4,0-0.6-0.1-0.8-0.3
		c-0.2-0.2-0.3-0.4-0.3-0.7c0-0.1,0-0.2,0.1-0.4l5-12c0.1-0.3,0.3-0.5,0.5-0.6c0.2-0.1,0.5-0.2,0.7-0.2c0.2,0,0.5,0.1,0.7,0.2
		c0.2,0.1,0.4,0.3,0.4,0.6l4.9,11.7c0.1,0.2,0.1,0.3,0.1,0.5c0,0.4-0.1,0.6-0.3,0.9c-0.2,0.2-0.5,0.3-0.8,0.3
		c-0.2,0-0.5-0.1-0.7-0.2S76.1,19,76,18.8l-4.3-10L72.2,8.6z M68.5,16.4l1.1-2.3H75l0.4,2.3H68.5z"/>
	<path class="st1" d="M80.4,19.6c-0.3,0-0.5-0.1-0.8-0.3c-0.2-0.2-0.3-0.5-0.3-0.7c0-0.3,0.1-0.6,0.3-0.8l4.1-5.5l1.3,1.9L81.4,19
		C81.1,19.4,80.8,19.6,80.4,19.6z M80.5,5.4c0.4,0,0.7,0.2,1,0.5l8.8,11.7c0.2,0.2,0.2,0.5,0.2,0.7c0,0.4-0.1,0.7-0.4,0.9
		c-0.3,0.2-0.5,0.3-0.8,0.3c-0.4,0-0.7-0.2-1-0.5L79.6,7.4c-0.2-0.2-0.3-0.5-0.3-0.7c0-0.3,0.1-0.6,0.4-0.9S80.3,5.4,80.5,5.4z
		 M89.5,5.5c0.3,0,0.6,0.1,0.8,0.4c0.2,0.2,0.3,0.5,0.3,0.8c0,0.3-0.1,0.5-0.3,0.7l-4,5.3l-1.4-1.9l3.5-4.7
		C88.8,5.7,89.1,5.5,89.5,5.5z"/>
	<path class="st1" d="M99.2,5.5c1.3,0,2.2,0.3,2.9,0.9c0.6,0.6,0.9,1.5,0.9,2.7c0,0.6-0.2,1.2-0.5,1.6c-0.3,0.5-0.8,0.8-1.4,1.1
		c-0.6,0.3-1.3,0.4-2.2,0.4l0.1-0.9c0.4,0,0.9,0.1,1.4,0.2s1.1,0.3,1.6,0.6c0.5,0.3,0.9,0.7,1.2,1.2c0.3,0.5,0.5,1.2,0.5,2
		c0,0.9-0.1,1.6-0.4,2.2c-0.3,0.6-0.7,1-1.1,1.3s-1,0.5-1.5,0.6s-1,0.2-1.5,0.2h-5c-0.3,0-0.6-0.1-0.9-0.3S93,18.6,93,18.3V6.7
		c0-0.3,0.1-0.6,0.3-0.9s0.5-0.4,0.9-0.4H99.2z M98.9,7.9h-3.6l0.3-0.3v3.6L95.3,11h3.6c0.4,0,0.7-0.1,1-0.4s0.5-0.6,0.5-1.1
		c0-0.6-0.1-1-0.4-1.3C99.7,8,99.4,7.9,98.9,7.9z M99,13.3h-3.6l0.2-0.2v4.2l-0.2-0.2h3.8c0.6,0,1.1-0.2,1.5-0.5
		c0.4-0.3,0.5-0.8,0.5-1.5c0-0.6-0.1-1-0.4-1.3s-0.5-0.4-0.9-0.5C99.6,13.4,99.3,13.3,99,13.3z"/>
	<path class="st1" d="M108.6,18.3c0,0.3-0.1,0.6-0.4,0.9c-0.3,0.2-0.5,0.3-0.9,0.3c-0.4,0-0.7-0.1-0.9-0.3s-0.3-0.5-0.3-0.9V6.7
		c0-0.3,0.1-0.6,0.4-0.9c0.2-0.2,0.5-0.4,0.9-0.4c0.3,0,0.6,0.1,0.8,0.4s0.4,0.5,0.4,0.9V18.3z"/>
	<path class="st1" d="M121,5.5c0.3,0,0.6,0.1,0.9,0.3c0.3,0.2,0.4,0.5,0.4,0.9c0,0.3-0.1,0.5-0.3,0.8l-7.7,9.8l-0.2-0.1h6.7
		c0.3,0,0.6,0.1,0.9,0.3c0.2,0.2,0.4,0.5,0.4,0.8c0,0.3-0.1,0.6-0.4,0.8s-0.5,0.3-0.9,0.3h-8.8c-0.3,0-0.6-0.1-0.9-0.4
		c-0.3-0.2-0.4-0.5-0.4-0.8c0-0.3,0.1-0.5,0.3-0.8l7.7-9.9l0.2,0.1h-6.1c-0.3,0-0.6-0.1-0.9-0.3c-0.2-0.2-0.4-0.5-0.4-0.8
		s0.1-0.6,0.4-0.8c0.2-0.2,0.5-0.3,0.9-0.3H121z"/>
	<path class="st1" d="M134,5.5c0.3,0,0.6,0.1,0.9,0.3c0.3,0.2,0.4,0.5,0.4,0.9c0,0.3-0.1,0.5-0.3,0.8l-7.7,9.8l-0.2-0.1h6.7
		c0.3,0,0.6,0.1,0.9,0.3c0.2,0.2,0.4,0.5,0.4,0.8c0,0.3-0.1,0.6-0.4,0.8s-0.5,0.3-0.9,0.3H125c-0.3,0-0.6-0.1-0.9-0.4
		c-0.3-0.2-0.4-0.5-0.4-0.8c0-0.3,0.1-0.5,0.3-0.8l7.7-9.9l0.2,0.1h-6.1c-0.3,0-0.6-0.1-0.9-0.3c-0.2-0.2-0.4-0.5-0.4-0.8
		s0.1-0.6,0.4-0.8c0.2-0.2,0.5-0.3,0.9-0.3H134z"/>
</g>
</svg>
